<svg width="26" height="26" viewBox="0 0 26 26" fill="none" xmlns="http://www.w3.org/2000/svg">
<path d="M25.9811 6.69694L14.3715 15.8756L14.3675 15.8792C14.344 15.9 14.3127 15.927 14.2745 15.958C14.1992 16.0192 14.0917 16.1009 13.9602 16.1841C13.7314 16.3288 13.2812 16.5749 12.7299 16.5749C12.1785 16.5749 11.7283 16.3288 11.4995 16.1841C11.368 16.1009 11.2605 16.0192 11.1852 15.958C11.1471 15.927 11.1158 15.9 11.0923 15.8792L11.0833 15.8713L0.00218125 6.91571C0.000731313 6.95329 0 6.99106 0 7.02899V19.971C0 21.6439 1.42274 23 3.17778 23H22.8222C24.5773 23 26 21.6439 26 19.971V7.02899C26 6.91678 25.9936 6.80599 25.9811 6.69694Z" fill="#0A2756"/>
<path d="M25.0153 4.83696L12.9544 14.3725L12.9259 14.3995C12.9219 14.403 12.9126 14.4111 12.8995 14.4218C12.8722 14.444 12.8332 14.4735 12.7889 14.5015C12.7654 14.5164 12.7457 14.5275 12.7299 14.5358C12.714 14.5275 12.6943 14.5164 12.6709 14.5015C12.6266 14.4735 12.5876 14.444 12.5602 14.4218C12.5471 14.4111 12.5382 14.4033 12.5342 14.3998L12.5094 14.3764L0.857414 4.95942C1.43729 4.36898 2.26233 4 3.17778 4H22.8222C23.6726 4 24.445 4.3184 25.0153 4.83696Z" fill="#0A2756"/>
</svg>
