<svg width="144" height="22" viewBox="0 0 144 22" fill="none" xmlns="http://www.w3.org/2000/svg">
<path d="M0 0.487488V2.16949H7.192V21.1935H9.164V2.16949H16.385V1.1104L24.0897 12.6675V21.1935H26.0617V12.6675L34.2397 0.487488H31.8907L25.1047 10.9855L18.2897 0.487488H0Z" fill="#0A2756"/>
<path d="M38.2216 0.487488H36.0176V21.1935H37.9896V3.67749H38.0476L50.1116 21.1935H52.3156V0.487488H50.3436V18.0035H50.2856L38.2216 0.487488Z" fill="#0A2756"/>
<path d="M62.2372 12.6675L54.1172 0.487488H56.4372L63.2522 10.9855L70.0382 0.487488H72.3872L64.2092 12.6675V21.1935H62.2372V12.6675Z" fill="#0A2756"/>
<path d="M81.772 5.01151C81.5014 5.90084 81.3951 6.86751 81.453 7.91151H83.918C83.8987 7.29284 83.9567 6.68384 84.092 6.08451C84.2467 5.46584 84.4884 4.91484 84.817 4.43151C85.1457 3.94817 85.5614 3.56151 86.064 3.27151C86.5861 2.96217 87.2047 2.80751 87.9201 2.80751C88.4614 2.80751 88.9737 2.89451 89.457 3.06851C89.9404 3.24251 90.356 3.49384 90.704 3.82251C91.0714 4.15117 91.3614 4.54751 91.5741 5.01151C91.7867 5.45617 91.8931 5.95884 91.8931 6.51951C91.8931 7.23484 91.7771 7.86317 91.5451 8.40451C91.3324 8.94584 91.0037 9.44851 90.5591 9.91251C90.1337 10.3765 89.5924 10.8405 88.9351 11.3045C88.2777 11.7492 87.5141 12.2422 86.6441 12.7835C85.9287 13.2088 85.2424 13.6632 84.585 14.1465C83.9277 14.6298 83.3381 15.1905 82.816 15.8285C82.294 16.4665 81.859 17.2205 81.511 18.0905C81.1824 18.9412 80.9697 19.9755 80.873 21.1935H94.3V19.0185H83.744C83.86 18.3805 84.1017 17.8198 84.469 17.3365C84.8557 16.8338 85.31 16.3698 85.832 15.9445C86.3734 15.5192 86.9631 15.1228 87.6011 14.7555L89.515 13.5955C90.153 13.1895 90.7717 12.7642 91.371 12.3195C91.9704 11.8748 92.5021 11.3818 92.966 10.8405C93.43 10.2798 93.7974 9.65151 94.068 8.95551C94.358 8.25951 94.5031 7.45718 94.5031 6.54851C94.5031 5.58184 94.329 4.73117 93.981 3.99651C93.6524 3.26184 93.1981 2.65284 92.618 2.16951C92.038 1.66684 91.3517 1.28984 90.5591 1.03851C89.7857 0.76784 88.9544 0.632507 88.065 0.632507C86.9824 0.632507 86.0157 0.816174 85.165 1.18351C84.3144 1.55084 83.5991 2.06318 83.0191 2.72051C82.4584 3.35851 82.0427 4.12217 81.772 5.01151Z" fill="#0A2756"/>
<path fill-rule="evenodd" clip-rule="evenodd" d="M97.5098 11.1015C97.5098 10.3475 97.5291 9.56451 97.5678 8.75251C97.6064 7.94051 97.7031 7.14784 97.8578 6.37451C98.0124 5.60117 98.2348 4.86651 98.5248 4.17051C98.8148 3.47451 99.2111 2.86551 99.7138 2.34351C100.216 1.82151 100.845 1.40584 101.599 1.09651C102.372 0.787174 103.29 0.632507 104.354 0.632507C105.417 0.632507 106.326 0.787174 107.08 1.09651C107.853 1.40584 108.491 1.82151 108.994 2.34351C109.496 2.86551 109.893 3.47451 110.183 4.17051C110.473 4.86651 110.695 5.60117 110.85 6.37451C111.004 7.14784 111.101 7.94051 111.14 8.75251C111.178 9.56451 111.198 10.3475 111.198 11.1015C111.198 11.8555 111.178 12.6385 111.14 13.4505C111.101 14.2625 111.004 15.0552 110.85 15.8285C110.695 16.6018 110.473 17.3365 110.183 18.0325C109.893 18.7092 109.496 19.3085 108.994 19.8305C108.491 20.3525 107.863 20.7682 107.109 21.0775C106.355 21.3675 105.436 21.5125 104.354 21.5125C103.29 21.5125 102.372 21.3675 101.599 21.0775C100.845 20.7682 100.216 20.3525 99.7138 19.8305C99.2111 19.3085 98.8148 18.7092 98.5248 18.0325C98.2348 17.3365 98.0124 16.6018 97.8578 15.8285C97.7031 15.0552 97.6064 14.2625 97.5678 13.4505C97.5291 12.6385 97.5098 11.8555 97.5098 11.1015ZM100.12 11.0725C100.12 11.8458 100.139 12.7158 100.178 13.6825C100.236 14.6298 100.39 15.5288 100.642 16.3795C100.912 17.2108 101.338 17.9165 101.918 18.4965C102.498 19.0765 103.31 19.3665 104.354 19.3665C105.398 19.3665 106.21 19.0765 106.79 18.4965C107.37 17.9165 107.785 17.2108 108.037 16.3795C108.307 15.5288 108.462 14.6298 108.501 13.6825C108.559 12.7158 108.588 11.8458 108.588 11.0725C108.588 10.5698 108.578 10.0188 108.559 9.41951C108.559 8.80084 108.51 8.19184 108.414 7.59251C108.336 6.97384 108.211 6.37451 108.037 5.79451C107.882 5.21451 107.64 4.71184 107.312 4.28651C107.002 3.84184 106.606 3.48417 106.123 3.21351C105.639 2.94284 105.05 2.80751 104.354 2.80751C103.658 2.80751 103.068 2.94284 102.585 3.21351C102.101 3.48417 101.695 3.84184 101.367 4.28651C101.057 4.71184 100.816 5.21451 100.642 5.79451C100.487 6.37451 100.361 6.97384 100.265 7.59251C100.187 8.19184 100.139 8.80084 100.12 9.41951V11.0725Z" fill="#0A2756"/>
<path d="M120.265 21.1935H122.73V0.632507H120.845C120.709 1.40584 120.458 2.04384 120.091 2.54651C119.723 3.04917 119.269 3.44551 118.728 3.73551C118.206 4.02551 117.616 4.22851 116.959 4.34451C116.301 4.44117 115.625 4.48951 114.929 4.48951V6.46151H120.265V21.1935Z" fill="#0A2756"/>
<path fill-rule="evenodd" clip-rule="evenodd" d="M133.624 18.5545C132.909 18.0132 132.503 17.2398 132.406 16.2345H129.941C130.096 18.0132 130.743 19.3375 131.884 20.2075C133.025 21.0775 134.455 21.5125 136.176 21.5125C138.67 21.5125 140.478 20.5652 141.599 18.6705C142.74 16.7565 143.31 14.0208 143.31 10.4635C143.31 8.51084 143.117 6.90617 142.73 5.64951C142.363 4.37351 141.86 3.36817 141.222 2.63351C140.584 1.89884 139.84 1.38651 138.989 1.09651C138.138 0.787174 137.23 0.632507 136.263 0.632507C135.277 0.632507 134.368 0.796841 133.537 1.12551C132.706 1.45417 131.99 1.91817 131.391 2.51751C130.792 3.09751 130.328 3.80317 129.999 4.63451C129.67 5.44651 129.506 6.34551 129.506 7.33151C129.506 8.33684 129.641 9.26484 129.912 10.1155C130.202 10.9662 130.618 11.6912 131.159 12.2905C131.72 12.8898 132.406 13.3635 133.218 13.7115C134.03 14.0402 134.958 14.2045 136.002 14.2045C137.007 14.2045 137.935 13.9532 138.786 13.4505C139.637 12.9285 140.294 12.2325 140.758 11.3625L140.816 11.4205C140.739 14.1078 140.323 16.1088 139.569 17.4235C138.815 18.7188 137.684 19.3665 136.176 19.3665C135.19 19.3665 134.339 19.0958 133.624 18.5545ZM140.091 5.70751C140.284 6.26818 140.381 6.86751 140.381 7.50551C140.381 8.10484 140.284 8.68484 140.091 9.24551C139.898 9.78684 139.617 10.2702 139.25 10.6955C138.883 11.1015 138.438 11.4302 137.916 11.6815C137.394 11.9135 136.814 12.0295 136.176 12.0295C135.577 12.0295 135.026 11.9135 134.523 11.6815C134.04 11.4302 133.614 11.1015 133.247 10.6955C132.899 10.2895 132.619 9.82551 132.406 9.30351C132.213 8.78151 132.116 8.24017 132.116 7.67951C132.116 7.04151 132.184 6.43251 132.319 5.85251C132.474 5.27251 132.706 4.76018 133.015 4.31551C133.344 3.85151 133.759 3.48417 134.262 3.21351C134.784 2.94284 135.412 2.80751 136.147 2.80751C136.843 2.80751 137.452 2.93317 137.974 3.18451C138.496 3.43584 138.931 3.78384 139.279 4.22851C139.646 4.65384 139.917 5.14684 140.091 5.70751Z" fill="#0A2756"/>
</svg>
