<svg width="26" height="26" viewBox="0 0 26 26" fill="none" xmlns="http://www.w3.org/2000/svg">
<path d="M19.4991 0.00540974L16.1275 0C12.3397 0 9.8918 2.51147 9.8918 6.39863V9.34883H6.50183C6.20889 9.34883 5.97168 9.58632 5.97168 9.87926V14.1538C5.97168 14.4467 6.20916 14.6839 6.50183 14.6839H9.8918V25.4698C9.8918 25.7628 10.129 26 10.422 26H14.8449C15.1378 26 15.3751 25.7625 15.3751 25.4698V14.6839H19.3387C19.6317 14.6839 19.8689 14.4467 19.8689 14.1538L19.8705 9.87926C19.8705 9.73861 19.8145 9.6039 19.7152 9.50436C19.616 9.40483 19.4807 9.34883 19.3401 9.34883H15.3751V6.84791C15.3751 5.64587 15.6615 5.03565 17.2273 5.03565L19.4986 5.03484C19.7912 5.03484 20.0285 4.79735 20.0285 4.50469V0.535564C20.0285 0.243168 19.7915 0.00595071 19.4991 0.00540974Z" fill="#0A2756"/>
</svg>
