<svg width="539" height="300" viewBox="0 0 539 300" fill="none" xmlns="http://www.w3.org/2000/svg">
<path d="M64.0669 78.299H123.674V89.4656H100.309V152.078H87.4317V89.4656H64.0669V78.299Z" fill="white"/>
<path d="M130.577 78.299H142.392V105.684H142.658C144.118 103.291 146.242 101.297 149.162 99.7016C151.95 98.1064 155.136 97.3087 158.721 97.3087C164.562 97.3087 169.208 98.771 172.527 101.829C175.846 104.886 177.572 109.406 177.572 115.521V152.211H165.757V118.445C165.624 114.192 164.695 111.134 163.102 109.273C161.509 107.412 158.854 106.481 155.402 106.481C153.411 106.481 151.685 106.88 150.092 107.545C148.499 108.209 147.171 109.273 146.109 110.602C145.047 111.932 144.118 113.394 143.587 115.122C142.923 116.85 142.658 118.711 142.658 120.572V152.078H130.842V78.299H130.577Z" fill="white"/>
<path d="M190.184 78.299H201.999V89.4656H190.184V78.299ZM190.184 98.6381H201.999V152.078H190.184V98.6381Z" fill="white"/>
<path d="M223.638 134.929C224.036 138.386 225.231 140.779 227.62 142.108C229.877 143.437 232.665 144.235 235.718 144.235C236.78 144.235 238.108 144.102 239.435 143.969C240.896 143.836 242.223 143.437 243.418 143.039C244.613 142.507 245.675 141.842 246.471 140.912C247.268 139.981 247.666 138.785 247.533 137.189C247.401 135.727 246.87 134.398 245.94 133.467C244.878 132.537 243.551 131.739 241.958 131.207C240.365 130.676 238.506 130.144 236.382 129.745C234.258 129.346 232.267 128.947 230.143 128.416C227.886 127.884 225.762 127.352 223.77 126.687C221.779 126.023 219.921 125.092 218.327 123.896C216.734 122.699 215.407 121.237 214.478 119.376C213.548 117.515 213.017 115.255 213.017 112.596C213.017 109.672 213.681 107.279 215.141 105.285C216.602 103.291 218.327 101.696 220.452 100.499C222.576 99.3028 224.965 98.5052 227.62 97.9734C230.275 97.4417 232.798 97.3087 235.187 97.3087C237.975 97.3087 240.63 97.5746 243.02 98.2393C245.542 98.771 247.799 99.8345 249.79 101.031C251.782 102.36 253.507 104.088 254.835 106.082C256.162 108.209 256.959 110.735 257.357 113.66H245.144C244.613 110.868 243.285 109.007 241.294 107.944C239.303 107.013 236.913 106.481 234.391 106.481C233.594 106.481 232.532 106.614 231.47 106.747C230.275 106.88 229.213 107.146 228.284 107.545C227.222 107.944 226.425 108.475 225.762 109.14C225.098 109.805 224.7 110.868 224.7 111.932C224.7 113.394 225.231 114.59 226.16 115.388C227.222 116.319 228.417 116.983 230.143 117.648C231.736 118.18 233.594 118.711 235.718 119.11C237.842 119.509 239.966 119.908 242.091 120.44C244.215 120.971 246.339 121.503 248.33 122.168C250.454 122.832 252.18 123.763 253.906 124.959C255.499 126.156 256.826 127.618 257.888 129.346C258.818 131.074 259.349 133.334 259.349 135.993C259.349 139.183 258.685 141.842 257.225 144.102C255.764 146.362 253.906 148.09 251.649 149.419C249.392 150.749 246.737 151.812 243.949 152.477C241.161 153.142 238.373 153.408 235.586 153.408C232.267 153.408 229.081 153.009 226.293 152.211C223.372 151.413 220.983 150.35 218.859 148.755C216.734 147.16 215.141 145.298 213.947 142.906C212.752 140.646 212.088 137.854 212.088 134.664H223.638V134.929Z" fill="white"/>
<path d="M317.76 123.098L290.148 78.299H305.149L324.664 111.4L343.913 78.299H358.383L330.903 123.098V152.078H318.026V123.098H317.76Z" fill="white"/>
<path d="M363.428 128.416C363.428 130.543 363.693 132.537 364.357 134.398C364.888 136.392 365.818 137.987 367.012 139.449C368.207 140.912 369.667 142.108 371.393 142.906C373.119 143.703 375.376 144.235 377.765 144.235C381.217 144.235 384.005 143.437 386.129 141.975C388.253 140.513 389.846 138.253 390.775 135.328H401.927C401.263 138.253 400.201 140.779 398.741 143.039C397.28 145.298 395.422 147.16 393.298 148.755C391.174 150.35 388.784 151.413 386.129 152.211C383.474 153.009 380.686 153.408 377.765 153.408C373.517 153.408 369.8 152.743 366.614 151.281C363.428 149.951 360.64 147.957 358.383 145.431C356.126 142.906 354.401 139.981 353.339 136.525C352.144 133.068 351.613 129.346 351.613 125.225C351.613 121.503 352.277 117.781 353.471 114.457C354.666 111.001 356.392 108.077 358.649 105.418C360.906 102.892 363.561 100.765 366.747 99.3028C369.933 97.8405 373.517 97.0429 377.5 97.0429C381.748 97.0429 385.465 97.9734 388.784 99.7016C392.103 101.43 394.891 103.823 397.148 106.614C399.404 109.539 400.997 112.862 401.927 116.584C402.989 120.307 403.122 124.162 402.723 128.15H363.428V128.416ZM390.908 120.572C390.775 118.711 390.377 116.983 389.713 115.255C389.05 113.527 388.12 112.065 387.058 110.735C385.863 109.406 384.536 108.475 382.943 107.678C381.35 106.88 379.491 106.481 377.5 106.481C375.376 106.481 373.517 106.88 371.924 107.545C370.198 108.209 368.738 109.273 367.543 110.602C366.349 111.932 365.419 113.394 364.623 115.122C363.959 116.85 363.561 118.711 363.428 120.705H390.908V120.572Z" fill="white"/>
<path d="M456.356 140.114C456.356 141.576 456.489 142.64 456.887 143.171C457.285 143.836 457.949 144.102 459.144 144.102C459.542 144.102 459.94 144.102 460.339 144.102C460.87 144.102 461.401 143.969 461.932 143.836V151.945C461.533 152.078 461.002 152.211 460.339 152.477C459.675 152.61 459.011 152.743 458.347 152.876C457.684 153.009 457.02 153.142 456.223 153.142C455.559 153.275 454.896 153.275 454.497 153.275C452.108 153.275 450.117 152.743 448.523 151.812C446.93 150.882 445.868 149.154 445.47 146.761C443.081 149.021 440.293 150.749 436.841 151.679C433.39 152.743 430.203 153.275 427.017 153.275C424.628 153.275 422.371 153.009 420.114 152.344C417.857 151.679 415.999 150.749 414.273 149.419C412.547 148.09 411.22 146.495 410.29 144.501C409.228 142.507 408.83 140.247 408.83 137.588C408.83 134.265 409.494 131.606 410.689 129.479C411.883 127.352 413.476 125.757 415.468 124.561C417.459 123.364 419.583 122.566 422.105 122.035C424.495 121.503 427.017 121.104 429.54 120.838C431.664 120.44 433.655 120.174 435.646 119.908C437.638 119.775 439.231 119.509 440.691 118.977C442.151 118.578 443.346 117.914 444.143 117.116C444.939 116.319 445.47 114.989 445.47 113.261C445.47 111.799 445.072 110.469 444.408 109.539C443.744 108.608 442.815 107.811 441.753 107.279C440.691 106.747 439.496 106.481 438.169 106.215C436.841 106.082 435.646 105.95 434.452 105.95C431.133 105.95 428.478 106.614 426.354 108.077C424.229 109.406 423.035 111.533 422.769 114.457H410.954C411.22 111.001 412.016 108.209 413.476 105.95C414.937 103.69 416.795 101.829 419.052 100.499C421.309 99.1698 423.831 98.1064 426.619 97.5746C429.407 97.0429 432.327 96.777 435.248 96.777C437.903 96.777 440.425 97.0429 442.948 97.5746C445.47 98.1064 447.727 99.0369 449.851 100.233C451.842 101.43 453.568 103.025 454.763 105.019C455.958 107.013 456.622 109.406 456.622 112.198V140.114H456.356ZM444.541 125.225C442.815 126.422 440.558 127.086 437.903 127.352C435.248 127.618 432.726 128.017 430.071 128.416C428.876 128.682 427.681 128.947 426.486 129.346C425.292 129.745 424.229 130.277 423.433 130.941C422.504 131.606 421.84 132.404 421.309 133.467C420.778 134.531 420.512 135.86 420.512 137.322C420.512 138.652 420.911 139.715 421.707 140.646C422.504 141.576 423.433 142.241 424.495 142.773C425.557 143.304 426.752 143.703 427.947 143.836C429.274 144.102 430.336 144.102 431.398 144.102C432.726 144.102 434.053 143.969 435.646 143.57C437.107 143.171 438.567 142.64 439.895 141.842C441.222 141.045 442.417 139.981 443.213 138.652C444.143 137.322 444.541 135.86 444.541 133.999V125.225Z" fill="white"/>
<path d="M468.968 98.6381H479.986V109.007H480.252C480.65 107.545 481.314 106.215 482.243 104.753C483.172 103.424 484.5 102.094 485.828 101.031C487.288 99.8345 488.748 99.0369 490.474 98.2393C492.2 97.5746 493.926 97.1758 495.784 97.1758C497.112 97.1758 498.041 97.1758 498.572 97.3087C499.103 97.4417 499.634 97.4417 500.165 97.5746V108.874C499.368 108.741 498.439 108.608 497.643 108.475C496.846 108.342 495.917 108.342 495.12 108.342C493.129 108.342 491.27 108.741 489.545 109.539C487.819 110.336 486.226 111.533 484.898 112.995C483.571 114.59 482.509 116.451 481.845 118.711C481.048 120.971 480.65 123.63 480.65 126.555V151.945H468.968V98.6381Z" fill="white"/>
<path d="M85.5731 169.891H99.2468L132.834 224.262H133.099V169.891H145.313V243.671H131.772L98.1848 189.433H97.9193V243.671H85.7059V169.891H85.5731Z" fill="white"/>
<path d="M168.146 220.008C168.146 222.135 168.412 224.129 169.076 225.99C169.607 227.984 170.536 229.579 171.731 231.042C172.925 232.504 174.386 233.7 176.112 234.498C177.837 235.296 180.094 235.827 182.484 235.827C185.935 235.827 188.723 235.03 190.847 233.568C192.971 232.105 194.564 229.845 195.494 226.921H206.645C205.981 229.845 204.919 232.371 203.459 234.631C201.999 236.891 200.14 238.752 198.016 240.347C195.892 241.942 193.502 243.006 190.847 243.804C188.192 244.601 185.404 245 182.484 245C178.236 245 174.519 244.335 171.332 242.873C168.146 241.544 165.358 239.55 163.102 237.024C160.845 234.498 159.119 231.574 158.057 228.117C156.862 224.661 156.331 220.939 156.331 216.818C156.331 213.096 156.995 209.373 158.19 206.05C159.385 202.594 161.11 199.669 163.367 197.01C165.624 194.485 168.279 192.358 171.465 190.895C174.651 189.433 178.236 188.635 182.218 188.635C186.466 188.635 190.184 189.566 193.502 191.294C196.821 193.022 199.609 195.415 201.866 198.207C204.123 201.131 205.716 204.455 206.645 208.177C207.707 211.899 207.84 215.754 207.442 219.742H168.146V220.008ZM195.626 212.298C195.494 210.437 195.095 208.709 194.432 206.98C193.768 205.252 192.839 203.79 191.777 202.461C190.582 201.131 189.254 200.201 187.661 199.403C186.068 198.606 184.21 198.207 182.218 198.207C180.094 198.207 178.236 198.606 176.643 199.27C174.917 199.935 173.456 200.998 172.262 202.328C171.067 203.657 170.138 205.119 169.341 206.848C168.677 208.576 168.279 210.437 168.146 212.431H195.626V212.298Z" fill="white"/>
<path d="M230.674 215.621L212.221 190.364H226.425L237.577 206.848L249.259 190.364H262.933L244.746 215.09L265.19 243.804H251.118L237.577 224.129L224.434 243.804H210.628L230.674 215.621Z" fill="white"/>
<path d="M266.385 190.231H275.279V174.278H287.094V190.231H297.715V199.004H287.094V227.453C287.094 228.649 287.094 229.712 287.227 230.643C287.36 231.574 287.625 232.238 287.891 232.903C288.289 233.568 288.82 233.966 289.617 234.232C290.413 234.498 291.342 234.631 292.67 234.631C293.466 234.631 294.263 234.631 295.192 234.631C295.989 234.631 296.785 234.498 297.715 234.232V243.272C296.387 243.405 295.192 243.538 293.865 243.671C292.67 243.804 291.342 243.937 290.015 243.937C286.962 243.937 284.439 243.671 282.581 243.006C280.722 242.341 279.262 241.544 278.2 240.48C277.138 239.284 276.474 237.954 276.076 236.226C275.677 234.498 275.412 232.504 275.412 230.377V198.871H266.517V190.231H266.385Z" fill="white"/>
<path d="M355.596 214.824L327.983 170.024H342.984L362.499 203.125L381.748 170.024H396.218L368.738 214.824V243.804H355.861V214.824H355.596Z" fill="white"/>
<path d="M401.263 220.008C401.263 222.135 401.529 224.129 402.192 225.99C402.723 227.984 403.653 229.579 404.847 231.042C406.042 232.504 407.502 233.7 409.228 234.498C410.954 235.296 413.211 235.827 415.6 235.827C419.052 235.827 421.84 235.03 423.964 233.568C426.088 232.105 427.681 229.845 428.61 226.921H439.762C439.098 229.845 438.036 232.371 436.576 234.631C435.115 236.891 433.257 238.752 431.133 240.347C429.009 241.942 426.619 243.006 423.964 243.804C421.309 244.601 418.521 245 415.6 245C411.352 245 407.635 244.335 404.449 242.873C401.263 241.544 398.475 239.55 396.218 237.024C393.962 234.498 392.236 231.574 391.174 228.117C389.979 224.661 389.448 220.939 389.448 216.818C389.448 213.096 390.112 209.373 391.306 206.05C392.501 202.594 394.227 199.669 396.484 197.01C398.741 194.485 401.396 192.358 404.582 190.895C407.768 189.433 411.352 188.635 415.335 188.635C419.583 188.635 423.3 189.566 426.619 191.294C429.938 193.022 432.726 195.415 434.983 198.207C437.239 201.131 438.832 204.455 439.762 208.177C440.824 211.899 440.957 215.754 440.558 219.742H401.263V220.008ZM428.743 212.298C428.61 210.437 428.212 208.709 427.548 206.98C426.885 205.252 425.955 203.79 424.893 202.461C423.698 201.131 422.371 200.201 420.778 199.403C419.185 198.606 417.326 198.207 415.335 198.207C413.211 198.207 411.352 198.606 409.759 199.27C408.033 199.935 406.573 200.998 405.378 202.328C404.184 203.657 403.254 205.119 402.458 206.848C401.794 208.576 401.396 210.437 401.263 212.431H428.743V212.298Z" fill="white"/>
<path d="M494.191 231.839C494.191 233.302 494.324 234.365 494.722 234.897C495.12 235.562 495.784 235.827 496.979 235.827C497.377 235.827 497.775 235.827 498.174 235.827C498.705 235.827 499.236 235.695 499.767 235.562V243.671C499.368 243.804 498.837 243.937 498.174 244.202C497.51 244.335 496.846 244.468 496.182 244.601C495.519 244.734 494.855 244.867 494.058 244.867C493.394 245 492.731 245 492.332 245C489.943 245 487.952 244.468 486.359 243.538C484.765 242.607 483.703 240.879 483.305 238.486C480.916 240.746 478.128 242.474 474.676 243.405C471.225 244.468 468.038 245 464.852 245C462.463 245 460.206 244.734 457.949 244.069C455.692 243.405 453.834 242.474 452.108 241.145C450.382 239.816 449.055 238.22 448.125 236.226C447.063 234.232 446.665 231.972 446.665 229.314C446.665 225.99 447.329 223.332 448.524 221.205C449.718 219.078 451.311 217.482 453.303 216.286C455.294 215.09 457.418 214.292 459.94 213.76C462.33 213.228 464.852 212.83 467.375 212.564C469.499 212.165 471.49 211.899 473.481 211.633C475.473 211.5 477.066 211.234 478.526 210.703C479.986 210.304 481.181 209.639 481.978 208.842C482.774 208.044 483.305 206.715 483.305 204.986C483.305 203.524 482.907 202.195 482.243 201.264C481.579 200.334 480.65 199.536 479.588 199.004C478.526 198.473 477.331 198.207 476.004 197.941C474.676 197.808 473.481 197.675 472.287 197.675C468.968 197.675 466.313 198.34 464.189 199.802C462.064 201.131 460.87 203.258 460.604 206.183H448.789C449.055 202.727 449.851 199.935 451.311 197.675C452.772 195.415 454.63 193.554 456.887 192.225C459.144 190.895 461.666 189.832 464.454 189.3C467.242 188.768 470.163 188.502 473.083 188.502C475.738 188.502 478.26 188.768 480.783 189.3C483.305 189.832 485.562 190.762 487.686 191.959C489.677 193.155 491.403 194.75 492.598 196.744C493.793 198.738 494.457 201.131 494.457 203.923V231.839H494.191ZM482.376 216.951C480.65 218.147 478.393 218.812 475.738 219.078C473.083 219.343 470.561 219.742 467.906 220.141C466.711 220.407 465.516 220.673 464.321 221.072C463.127 221.47 462.064 222.002 461.268 222.667C460.339 223.332 459.675 224.129 459.144 225.193C458.613 226.256 458.347 227.585 458.347 229.048C458.347 230.377 458.746 231.441 459.542 232.371C460.339 233.302 461.268 233.966 462.33 234.498C463.392 235.03 464.587 235.429 465.782 235.562C467.109 235.827 468.171 235.827 469.233 235.827C470.561 235.827 471.888 235.695 473.481 235.296C474.942 234.897 476.402 234.365 477.729 233.568C479.057 232.77 480.252 231.706 481.048 230.377C481.978 229.048 482.376 227.585 482.376 225.724V216.951Z" fill="white"/>
<path d="M517.821 190.231V200.6H518.087C518.485 199.137 519.149 197.808 520.078 196.346C521.007 195.016 522.335 193.687 523.663 192.623C525.123 191.427 526.583 190.629 528.309 189.832C530.035 189.167 531.761 188.768 533.619 188.768C534.947 188.768 535.876 188.768 536.407 188.901C536.938 189.034 537.469 189.034 538 189.167V200.467C537.203 200.334 536.274 200.201 535.478 200.068C534.681 199.935 533.752 199.935 532.955 199.935C530.964 199.935 529.105 200.334 527.38 201.131C525.654 201.929 524.061 203.125 522.733 204.588C521.406 206.183 520.344 208.044 519.68 210.304C518.883 212.564 518.485 215.222 518.485 218.147V243.538H506.67V190.231H517.821Z" fill="white"/>
<path d="M69.908 9.57135C71.2356 9.43842 72.4304 9.03961 73.3597 8.6408C74.2889 8.10906 75.2182 7.31145 75.882 6.24797C76.5458 5.18448 77.0768 3.72219 77.3423 1.72816H80.3956V43.8687H76.5458V12.6289H65.3944V9.97016C67.1202 9.83722 68.5805 9.70429 69.908 9.57135Z" fill="white"/>
<path d="M95.1314 43.8687C95.1314 41.7417 95.5296 39.8806 96.1934 38.2854C96.8572 36.6902 97.7865 35.2279 98.8485 33.8985C99.9105 32.5692 101.238 31.5057 102.698 30.4422C104.159 29.3787 105.486 28.3153 107.079 27.3847C108.54 26.4542 110 25.3907 111.46 24.3272C112.92 23.2637 114.248 22.2002 115.443 21.0038C116.638 19.8074 117.434 18.611 118.098 17.4145C118.629 16.2181 119.027 14.7558 119.027 13.0277C119.027 11.6983 118.762 10.5019 118.231 9.43842C117.7 8.37493 117.036 7.44438 116.239 6.77971C115.443 5.98209 114.381 5.45035 113.186 5.05155C111.991 4.65274 110.796 4.51981 109.602 4.51981C107.876 4.51981 106.416 4.78568 105.221 5.45035C104.026 6.11503 102.964 6.91264 102.3 7.97613C101.504 9.03961 100.973 10.236 100.707 11.6983C100.043 13.2935 99.9105 14.7558 99.9105 16.3511H96.0607C96.0607 14.2241 96.3262 12.2301 96.8572 10.369C97.3882 8.50787 98.1847 6.91264 99.3795 5.58329C100.442 4.25393 101.902 3.19045 103.628 2.52577C105.353 1.72816 107.345 1.32935 109.602 1.32935C111.46 1.32935 113.186 1.59523 114.779 2.12697C116.372 2.65871 117.7 3.32339 118.894 4.38687C120.089 5.31742 121.018 6.64677 121.682 8.10906C122.346 9.57135 122.612 11.2995 122.612 13.2935C122.612 15.0217 122.346 16.6169 121.682 18.0792C121.151 19.5415 120.355 20.8709 119.293 22.0673C118.363 23.2637 117.169 24.3272 115.974 25.3907C114.646 26.4542 113.319 27.3847 111.991 28.1823C110.929 28.847 109.867 29.6446 108.407 30.4422C107.079 31.2398 105.752 32.1704 104.424 33.2339C103.097 34.2973 102.035 35.3608 101.105 36.5572C100.176 37.7537 99.5123 39.083 99.2468 40.4124H122.612V43.8687H95.1314Z" fill="white"/>
<path d="M146.64 12.7618H150.49V25.9224H168.146V12.7618H171.996V43.8687H168.146V29.2458H150.49V43.8687H146.64V12.7618Z" fill="white"/>
<path d="M192.042 44.6663C189.652 44.6663 187.528 44.2675 185.803 43.337C183.944 42.5393 182.484 41.3429 181.156 39.8806C179.961 38.4183 179.032 36.6902 178.368 34.6962C177.705 32.7021 177.439 30.5752 177.439 28.3153C177.439 26.0553 177.705 24.0613 178.368 21.9344C179.032 19.9403 179.961 18.2122 181.156 16.7499C182.351 15.2876 183.944 14.0912 185.803 13.1606C187.661 12.2301 189.652 11.8313 192.042 11.8313C194.432 11.8313 196.556 12.2301 198.282 13.1606C200.14 14.0912 201.6 15.2876 202.928 16.7499C204.123 18.2122 205.052 19.9403 205.716 21.9344C206.38 23.9284 206.645 26.0553 206.645 28.3153C206.645 30.5752 206.38 32.7021 205.716 34.6962C205.052 36.6902 204.123 38.4183 202.928 39.8806C201.733 41.3429 200.14 42.5393 198.282 43.337C196.556 44.2675 194.432 44.6663 192.042 44.6663ZM192.042 41.4759C193.901 41.4759 195.361 41.0771 196.821 40.2794C198.149 39.4818 199.344 38.5513 200.273 37.2219C201.202 36.0255 201.866 34.5632 202.264 32.968C202.662 31.3728 202.928 29.7775 202.928 28.1823C202.928 26.5871 202.662 24.9919 202.264 23.3966C201.866 21.8014 201.069 20.4721 200.273 19.1427C199.344 17.9463 198.282 16.8828 196.821 16.0852C195.494 15.2876 193.901 14.8888 192.042 14.8888C190.183 14.8888 188.723 15.2876 187.263 16.0852C185.935 16.8828 184.741 17.8133 183.811 19.1427C182.882 20.3391 182.218 21.8014 181.82 23.3966C181.422 24.9919 181.156 26.5871 181.156 28.1823C181.156 29.7775 181.422 31.3728 181.82 32.968C182.218 34.5632 183.015 35.8926 183.811 37.2219C184.741 38.4183 185.803 39.4818 187.263 40.2794C188.723 41.0771 190.316 41.4759 192.042 41.4759Z" fill="white"/>
<path d="M220.186 31.2398C217.398 30.974 215.274 30.1763 213.548 28.4482C211.955 26.853 211.159 24.726 211.159 21.9343C211.159 20.605 211.424 19.2756 211.822 18.2122C212.221 17.0157 212.885 16.0852 213.681 15.2876C214.478 14.49 215.407 13.8253 216.602 13.4265C217.796 13.0277 219.124 12.7618 220.452 12.7618H235.453V43.8687H231.603V31.5057H224.301L213.681 43.8687H208.769L220.186 31.2398ZM231.868 28.3153V15.9523H221.514C219.389 15.9523 217.796 16.484 216.734 17.6804C215.672 18.8768 215.009 20.3391 215.009 22.0673C215.009 23.9284 215.54 25.3907 216.734 26.4542C217.796 27.6506 219.522 28.1823 221.514 28.1823H231.868V28.3153Z" fill="white"/>
<path d="M256.162 44.6663C253.375 44.6663 250.985 44.1346 249.126 43.0711C247.268 42.0076 245.808 40.6782 244.745 38.9501C243.683 37.2219 242.887 35.2279 242.489 32.968C242.09 30.7081 241.825 28.4482 241.825 26.0553C241.825 24.5931 241.825 22.9978 241.958 21.4026C242.09 19.8074 242.223 18.2122 242.621 16.6169C242.887 15.0217 243.285 13.5594 243.816 12.0971C244.347 10.6348 244.878 9.30548 245.675 8.242C247.135 6.11503 248.728 4.51981 250.719 3.58926C252.711 2.65871 255.1 2.12697 258.154 1.8611L261.074 1.72816C262.667 1.59523 263.729 1.46229 264.26 1.19642C264.791 0.930548 265.19 0.531742 265.455 0H269.703C269.438 1.8611 268.509 3.05752 267.314 3.72219C265.986 4.38687 263.995 4.78568 261.34 4.91861L256.693 5.31742C253.109 5.58329 250.454 6.77971 248.595 9.17255C246.737 11.4324 245.542 15.0217 244.745 19.8074H244.878C245.94 17.6804 247.401 16.0852 249.525 14.7558C251.516 13.4265 253.906 12.8947 256.428 12.8947C258.552 12.8947 260.411 13.2935 262.136 13.9582C263.862 14.6229 265.322 15.6864 266.517 17.1487C267.712 18.478 268.774 20.2062 269.438 22.2002C270.102 24.1943 270.5 26.3212 270.5 28.847C270.5 31.2398 270.102 33.4997 269.438 35.4938C268.774 37.4878 267.845 39.216 266.517 40.5453C265.19 42.0076 263.729 43.0711 262.004 43.7358C260.278 44.2675 258.286 44.6663 256.162 44.6663ZM256.162 41.4759C257.623 41.4759 259.083 41.21 260.411 40.5453C261.738 39.8806 262.8 39.083 263.729 37.8866C264.659 36.6902 265.455 35.3608 265.986 33.7656C266.517 32.1704 266.783 30.4422 266.783 28.5811C266.783 26.72 266.517 24.9919 265.986 23.3966C265.455 21.8014 264.791 20.4721 263.729 19.4086C262.8 18.3451 261.738 17.4145 260.411 16.8828C259.083 16.2181 257.755 15.9523 256.295 15.9523C254.702 15.9523 253.242 16.2181 251.914 16.8828C250.587 17.5475 249.525 18.3451 248.463 19.4086C247.533 20.4721 246.737 21.8014 246.206 23.3966C245.675 24.9919 245.409 26.72 245.409 28.5811C245.409 30.4422 245.675 32.3033 246.206 33.7656C246.737 35.3608 247.401 36.6902 248.463 37.8866C249.392 39.083 250.587 39.8806 251.781 40.5453C253.242 41.21 254.569 41.4759 256.162 41.4759Z" fill="white"/>
<path d="M279.66 12.7618V18.611H279.793C280.722 16.484 282.05 14.7558 284.041 13.5594C286.032 12.363 288.289 11.8313 290.811 11.8313C293.201 11.8313 295.192 12.2301 296.918 13.1606C298.644 14.0912 300.104 15.2876 301.299 16.7499C302.494 18.2122 303.29 19.9403 303.821 21.9343C304.352 23.9284 304.618 26.0553 304.618 28.1823C304.618 30.4422 304.352 32.5692 303.821 34.5632C303.29 36.5572 302.361 38.2854 301.299 39.7477C300.104 41.21 298.644 42.4064 296.918 43.337C295.192 44.1346 293.068 44.6663 290.811 44.6663C289.617 44.6663 288.554 44.5334 287.36 44.2675C286.298 44.0016 285.236 43.6028 284.306 42.9381C283.377 42.4064 282.448 41.6088 281.784 40.8112C280.987 40.0136 280.456 38.9501 280.058 37.8866H279.925V55.1682H276.076V12.7618H279.66ZM290.811 41.4759C292.67 41.4759 294.13 41.0771 295.458 40.2794C296.785 39.4818 297.847 38.5513 298.644 37.2219C299.44 36.0255 300.104 34.5632 300.502 32.968C300.901 31.3728 301.033 29.7775 301.033 28.1823C301.033 26.5871 300.901 24.9919 300.502 23.3966C300.104 21.8014 299.573 20.3391 298.644 19.1427C297.847 17.9463 296.785 16.8828 295.458 16.0852C294.13 15.2876 292.67 14.8888 290.811 14.8888C288.687 14.8888 286.961 15.2876 285.501 15.9523C284.174 16.6169 282.979 17.6804 282.182 18.8768C281.386 20.0733 280.722 21.5355 280.456 23.1308C280.058 24.726 279.925 26.4542 279.925 28.1823C279.925 29.7775 280.058 31.3728 280.456 32.968C280.855 34.5632 281.518 35.8926 282.315 37.2219C283.112 38.4183 284.306 39.4818 285.634 40.2794C287.094 41.0771 288.82 41.4759 290.811 41.4759Z" fill="white"/>
<path d="M318.557 31.2398C315.769 30.974 313.645 30.1763 311.919 28.4482C310.326 26.853 309.53 24.726 309.53 21.9343C309.53 20.605 309.795 19.2756 310.193 18.2122C310.592 17.0157 311.255 16.0852 312.052 15.2876C312.849 14.49 313.778 13.8253 314.973 13.4265C316.167 13.0277 317.495 12.7618 318.822 12.7618H333.824V43.8687H329.974V31.5057H322.672L312.052 43.8687H307.14L318.557 31.2398ZM330.107 28.3153V15.9523H319.752C317.628 15.9523 316.035 16.484 314.973 17.6804C313.911 18.8768 313.247 20.3391 313.247 22.0673C313.247 23.9284 313.778 25.3907 314.973 26.4542C316.035 27.6506 317.76 28.1823 319.752 28.1823H330.107V28.3153Z" fill="white"/>
<path d="M3 240.081H16.2754L3 226.256V221.603L15.2134 234.631L30.3474 221.205V225.857L17.4702 237.556L20.1253 240.347H30.4802V243.937H3V240.081Z" fill="#FFB32C"/>
<path d="M30.7457 210.171C30.7457 211.766 30.4802 213.096 29.9491 214.292C29.4181 215.488 28.7544 216.419 27.8251 217.349C26.8958 218.147 25.8338 218.812 24.5062 219.211C23.3114 219.609 21.8511 219.875 20.3908 219.875C18.9305 219.875 17.603 219.609 16.2754 219.211C14.9479 218.812 13.8859 218.147 12.9566 217.349C12.0273 216.552 11.2308 215.488 10.6998 214.292C10.1687 213.096 9.90323 211.766 9.90323 210.171C9.90323 208.576 10.1687 207.246 10.6998 206.05C11.2308 204.854 12.0273 203.79 12.9566 202.992C13.8859 202.195 14.9479 201.53 16.2754 201.131C17.603 200.733 18.9305 200.467 20.3908 200.467C21.8511 200.467 23.1787 200.733 24.5062 201.131C25.701 201.53 26.8958 202.195 27.8251 202.992C28.7544 203.79 29.4181 204.854 29.9491 206.05C30.4802 207.246 30.7457 208.576 30.7457 210.171ZM27.9578 210.171C27.9578 209.373 27.8251 208.576 27.4268 207.778C27.1613 206.98 26.6303 206.316 25.9665 205.784C25.3027 205.252 24.5062 204.721 23.5769 204.455C22.6476 204.189 21.5856 203.923 20.3908 203.923C19.196 203.923 18.134 204.056 17.2047 204.455C16.2754 204.721 15.4789 205.252 14.8151 205.784C14.1514 206.316 13.7531 206.98 13.3548 207.778C13.0893 208.576 12.8238 209.373 12.8238 210.171C12.8238 210.969 12.9566 211.766 13.3548 212.564C13.6204 213.361 14.1514 214.026 14.8151 214.558C15.4789 215.09 16.2754 215.621 17.2047 215.887C18.134 216.153 19.196 216.419 20.3908 216.419C21.5856 216.419 22.6476 216.286 23.5769 215.887C24.5062 215.621 25.3027 215.09 25.9665 214.558C26.6303 214.026 27.0285 213.361 27.4268 212.564C27.6923 211.766 27.9578 210.969 27.9578 210.171Z" fill="#FFB32C"/>
<path d="M10.567 196.744V193.554H18.3995V183.451H10.567V180.26H30.3474V183.451H21.1873V193.554H30.3474V196.744H10.567Z" fill="#FFB32C"/>
<path d="M28.8871 163.909C29.1526 164.175 29.2854 164.441 29.5509 164.707C29.8164 164.973 29.9491 165.372 30.2146 165.771C30.3474 166.169 30.4802 166.568 30.6129 166.967C30.7457 167.366 30.7457 167.765 30.7457 168.163C30.7457 169.626 30.4802 170.955 29.8164 171.886C29.2854 172.949 28.4888 173.747 27.4268 174.278C26.4975 174.943 25.3027 175.342 23.9752 175.608C22.6476 175.874 21.3201 176.007 19.9926 176.007C16.8065 176.007 14.4169 175.342 12.5583 173.88C10.8325 172.55 9.90323 170.556 9.90323 168.296C9.90323 167.897 9.90323 167.499 10.036 166.967C10.1687 166.568 10.3015 166.036 10.567 165.638C10.8325 165.239 10.9653 164.84 11.2308 164.574C11.4963 164.175 11.7618 163.909 12.0273 163.776H3V160.586H12.1601C11.8945 160.32 11.629 160.054 11.3635 159.788C11.098 159.523 10.8325 159.124 10.6998 158.725C10.4342 158.326 10.3015 157.927 10.1687 157.396C10.036 156.997 10.036 156.465 10.036 156.066C10.036 153.673 10.9653 151.812 12.6911 150.483C14.4169 149.154 16.9392 148.356 20.1253 148.356C21.4529 148.356 22.7804 148.489 24.1079 148.755C25.4355 149.021 26.4975 149.552 27.5596 150.084C28.4888 150.749 29.2854 151.546 29.9491 152.477C30.4802 153.54 30.8784 154.737 30.8784 156.199C30.8784 156.997 30.7457 157.661 30.3474 158.592C29.9491 159.39 29.5509 160.054 29.0199 160.453H38.0471V163.644H28.8871V163.909ZM28.0906 167.765C28.0906 166.834 27.8251 165.903 27.294 165.239C26.763 164.574 26.232 164.042 25.4355 163.909H15.6117C15.0806 164.042 14.6824 164.308 14.2841 164.574C13.8859 164.84 13.6203 165.239 13.4876 165.638C13.2221 166.036 13.0893 166.435 13.0893 166.834C12.9566 167.233 12.9566 167.632 12.9566 168.03C12.9566 168.828 13.0893 169.626 13.4876 170.157C13.8859 170.822 14.4169 171.221 15.0806 171.62C15.7444 172.018 16.5409 172.284 17.4702 172.417C18.3995 172.55 19.3288 172.683 20.3908 172.683C21.3201 172.683 22.2494 172.55 23.1787 172.417C24.1079 172.284 24.9045 172.018 25.701 171.62C26.4975 171.221 27.0285 170.689 27.5596 170.157C27.8251 169.626 28.0906 168.828 28.0906 167.765ZM28.0906 156.864C28.0906 155.933 27.8251 155.003 27.4268 154.471C26.8958 153.806 26.3648 153.275 25.5682 153.009C24.7717 152.61 23.9752 152.344 23.0459 152.211C22.1166 152.078 21.1873 151.945 20.2581 151.945C19.196 151.945 18.134 152.078 17.3375 152.211C16.4082 152.344 15.6117 152.743 14.9479 153.009C14.2841 153.408 13.7531 153.939 13.3548 154.471C12.9566 155.136 12.8238 155.8 12.8238 156.598C12.8238 156.997 12.8238 157.396 12.9566 157.794C13.0893 158.193 13.2221 158.592 13.3548 158.991C13.6203 159.39 13.8859 159.655 14.1514 160.054C14.4169 160.453 14.9479 160.586 15.4789 160.719H25.4355C26.0993 160.586 26.763 160.187 27.294 159.39C27.8251 158.725 28.0906 157.927 28.0906 156.864Z" fill="#FFB32C"/>
<path d="M30.7457 136.126C30.7457 137.721 30.4802 139.051 29.9491 140.247C29.4181 141.443 28.7543 142.374 27.8251 143.172C26.8958 143.969 25.8337 144.501 24.5062 144.9C23.1787 145.298 21.8511 145.431 20.3908 145.431C18.9305 145.431 17.603 145.166 16.2754 144.767C14.9479 144.368 13.8859 143.703 12.9566 142.773C12.0273 141.975 11.3635 140.912 10.8325 139.848C10.3015 138.652 10.036 137.455 10.036 136.126C10.036 134.398 10.4342 132.935 11.098 131.739C11.7618 130.543 12.6911 129.612 13.8859 128.947C14.9479 128.283 16.2754 127.751 17.603 127.485C18.9305 127.219 20.2581 127.086 21.4529 127.219V142.241C22.3821 142.241 23.1787 142.108 23.9752 141.975C24.7717 141.709 25.4355 141.31 26.0993 140.912C26.763 140.38 27.1613 139.715 27.5596 138.918C27.9578 138.12 28.0906 137.189 28.0906 136.126C28.0906 134.797 27.8251 133.6 27.1613 132.67C26.4975 131.739 25.5682 131.207 24.2407 130.941V127.751C26.4975 128.15 28.2233 129.08 29.2854 130.676C30.2146 132.005 30.7457 133.866 30.7457 136.126ZM18.5323 130.809C17.7357 130.809 17.072 131.074 16.4082 131.34C15.7444 131.606 15.0806 132.005 14.6824 132.537C14.1514 133.068 13.7531 133.6 13.4876 134.265C13.2221 134.93 13.0893 135.727 13.0893 136.525C13.0893 137.322 13.2221 138.12 13.4876 138.785C13.7531 139.449 14.1514 139.981 14.6824 140.513C15.2134 141.045 15.7444 141.443 16.4082 141.709C17.072 141.975 17.8685 142.108 18.5323 142.241V130.809Z" fill="#FFB32C"/>
<path d="M10.567 123.896V120.705H13.2221V120.572C12.1601 120.041 11.3635 119.243 10.8325 118.047C10.3015 116.85 10.036 115.654 10.036 114.192C10.036 112.596 10.3015 111.267 10.8325 110.204C11.3635 109.007 12.1601 108.077 13.0893 107.412C14.0186 106.614 15.2134 106.083 16.4082 105.684C17.603 105.285 18.9305 105.152 20.3908 105.152C21.8511 105.152 23.1787 105.285 24.3735 105.684C25.5682 106.083 26.6303 106.614 27.5596 107.412C28.4888 108.209 29.2854 109.14 29.8164 110.204C30.3474 111.4 30.6129 112.596 30.6129 114.192C30.6129 114.723 30.6129 115.255 30.4802 115.787C30.3474 116.319 30.2146 116.983 29.9491 117.515C29.6836 118.047 29.4181 118.711 29.0199 119.243C28.6216 119.775 28.0906 120.174 27.5596 120.572V120.705H37.7816V123.896H10.567ZM27.9578 114.457C27.9578 113.394 27.6923 112.463 27.294 111.666C26.8958 110.868 26.232 110.336 25.5682 109.805C24.9045 109.406 23.9752 109.007 23.1787 108.874C22.2494 108.608 21.3201 108.608 20.3908 108.608C19.4615 108.608 18.5323 108.741 17.7357 109.007C16.8065 109.273 16.0099 109.672 15.3462 110.071C14.6824 110.602 14.1514 111.267 13.7531 111.932C13.3548 112.729 13.0893 113.66 13.0893 114.723C13.0893 115.787 13.3548 116.717 13.7531 117.515C14.1514 118.313 14.8151 118.844 15.4789 119.376C16.1427 119.908 16.9392 120.174 17.8685 120.44C18.7978 120.705 19.727 120.705 20.5236 120.705C21.4529 120.705 22.3821 120.572 23.3114 120.307C24.2407 120.041 25.0372 119.775 25.701 119.243C26.3648 118.711 26.8958 118.047 27.4268 117.249C27.6923 116.584 27.9578 115.654 27.9578 114.457Z" fill="#FFB32C"/>
<path d="M30.7457 92.9219C30.7457 94.5171 30.4802 95.8465 29.9491 97.0429C29.4181 98.2393 28.7543 99.1699 27.8251 99.9675C26.8958 100.765 25.8337 101.297 24.5062 101.696C23.1787 102.094 21.8511 102.227 20.3908 102.227C18.9305 102.227 17.603 101.962 16.2754 101.563C14.9479 101.164 13.8859 100.499 12.9566 99.5687C12.0273 98.7711 11.3635 97.7076 10.8325 96.6441C10.3015 95.7135 10.036 94.3842 10.036 93.0548C10.036 91.3267 10.4342 89.8644 11.098 88.668C11.7618 87.4715 12.6911 86.541 13.8859 85.8763C14.9479 85.2116 16.2754 84.6799 17.603 84.414C18.9305 84.1482 20.2581 84.0152 21.4529 84.1482V99.0369C22.3821 99.0369 23.1787 98.904 23.9752 98.7711C24.7717 98.5052 25.4355 98.1064 26.0993 97.7076C26.763 97.1758 27.1613 96.5112 27.5596 95.7135C27.9578 94.9159 28.0906 93.9854 28.0906 92.9219C28.0906 91.5925 27.8251 90.3961 27.1613 89.4656C26.4975 88.535 25.5682 88.0033 24.2407 87.7374V84.547C26.4975 84.9458 28.2233 85.8763 29.2854 87.4715C30.2146 88.8009 30.7457 90.662 30.7457 92.9219ZM18.5323 87.4715C17.7357 87.4715 17.072 87.7374 16.4082 88.0033C15.7444 88.2691 15.0806 88.668 14.6824 89.1997C14.1514 89.7314 13.7531 90.2632 13.4876 90.9279C13.2221 91.5925 13.0893 92.3902 13.0893 93.1878C13.0893 93.9854 13.2221 94.783 13.4876 95.4477C13.7531 96.1124 14.1514 96.6441 14.6824 97.1758C15.2134 97.7076 15.7444 98.1064 16.4082 98.3723C17.072 98.6381 17.8685 98.7711 18.5323 98.904V87.4715Z" fill="#FFB32C"/>
<path d="M10.567 80.6918V77.5014H18.3995V67.3983H10.567V64.2078H30.3474V67.3983H21.1873V77.5014H30.3474V80.6918H10.567Z" fill="#FFB32C"/>
<path d="M30.3474 43.8687V59.2892H10.567V56.0988H27.4268V46.7933H10.567V43.6028H27.4268V40.9441H36.3213V43.8687H30.3474Z" fill="#FFB32C"/>
<path d="M10.567 37.6208V34.4303H26.763L10.567 25.1248V21.0038H30.3474V24.1943H14.1514L30.3474 33.4998V37.6208H10.567Z" fill="#FFB32C"/>
<path d="M22.6476 11.8313C22.3821 13.2936 21.8511 14.357 20.7891 15.2876C19.727 16.2181 18.3995 16.617 16.6737 16.617C14.8151 16.617 13.3548 16.0852 12.2928 14.8888C11.2308 13.8253 10.6998 12.2301 10.6998 10.369V0.265892H30.4802V3.45634H22.9132V7.97615L30.4802 14.0912V18.478L22.6476 11.8313ZM19.8598 3.58928H13.3548V9.3055C13.3548 10.6349 13.6203 11.6983 14.2841 12.2301C14.8151 12.8948 15.6117 13.1606 16.6737 13.1606C17.7357 13.1606 18.5323 12.8948 19.0633 12.2301C19.5943 11.5654 19.8598 10.6349 19.8598 9.3055V3.58928Z" fill="#FFB32C"/>
<path d="M514.879 284.489C514.879 283.602 515.585 282.895 516.44 282.895C517.295 282.895 518 283.602 518 284.489C518 285.376 517.295 286.083 516.44 286.083C515.57 286.083 514.879 285.361 514.879 284.489Z" fill="white"/>
<path d="M511.699 290.835H514.189V283.045H511.699V290.835ZM505.053 286.474H507.948C507.828 285.391 507.333 284.789 506.523 284.789C505.698 284.774 505.158 285.391 505.053 286.474ZM510.379 287.211H505.038C505.098 288.398 505.638 289.09 506.523 289.09C507.258 289.09 507.798 288.684 507.963 288.038H510.364C510.079 289.902 508.638 291 506.508 291C504.033 291 502.592 289.496 502.592 286.94C502.592 284.383 504.033 282.895 506.508 282.895C508.938 282.895 510.364 284.383 510.364 286.94V287.211H510.379ZM502.667 290.835H499.697L496.951 286.85H496.921V290.835H494.431V279H496.921V286.714H496.951L499.427 283.045H502.292L499.637 286.744L502.667 290.835ZM490.32 286.925C490.32 285.767 489.735 284.88 488.76 284.88C487.77 284.88 487.185 285.647 487.185 286.925C487.185 288.218 487.77 288.97 488.76 288.97C489.735 288.97 490.32 288.098 490.32 286.925ZM492.706 290.835H490.2V288.083H490.17C490.17 289.902 489.195 290.985 487.515 290.985C485.7 290.985 484.589 289.481 484.589 286.925C484.589 284.383 485.685 282.88 487.515 282.88C489.18 282.88 490.17 283.962 490.17 285.782H490.2V283.03H492.706V290.835ZM483.329 286.068V290.835H480.839V286.188C480.839 285.361 480.434 284.88 479.729 284.88C478.933 284.88 478.468 285.511 478.468 286.564V290.82H475.978V286.188C475.978 285.361 475.558 284.88 474.853 284.88C474.058 284.88 473.593 285.511 473.593 286.564V290.82H471.087V283.03H473.593V285.797H473.623C473.623 283.962 474.508 282.88 476.008 282.88C477.553 282.88 478.483 283.992 478.483 285.797H478.513C478.513 283.962 479.354 282.88 480.794 282.88C482.384 282.895 483.329 284.068 483.329 286.068ZM464.411 286.474H467.322C467.202 285.391 466.706 284.789 465.896 284.789C465.071 284.774 464.516 285.391 464.411 286.474ZM469.737 287.211H464.396C464.456 288.398 464.996 289.09 465.881 289.09C466.616 289.09 467.157 288.684 467.322 288.038H469.722C469.437 289.902 467.997 291 465.866 291C463.406 291 461.951 289.496 461.951 286.94C461.951 284.383 463.391 282.895 465.866 282.895C468.282 282.895 469.722 284.383 469.722 286.94V287.211H469.737ZM461.321 283.045L459.64 290.835H454.929L453.249 283.045H455.92L457.27 290.669H457.3L458.65 283.045H461.321ZM449.709 286.925C449.709 285.767 449.124 284.88 448.148 284.88C447.158 284.88 446.573 285.647 446.573 286.925C446.573 288.218 447.158 288.97 448.148 288.97C449.124 288.97 449.709 288.098 449.709 286.925ZM452.109 290.835H449.604V288.083H449.574C449.574 289.902 448.598 290.985 446.918 290.985C445.103 290.985 443.993 289.481 443.993 286.925C443.993 284.383 445.088 282.88 446.918 282.88C448.583 282.88 449.574 283.962 449.574 285.782H449.604V283.03H452.109V290.835ZM443.573 279.466L441.787 290.835H437.152L435.786 279.677H435.756L434.406 290.835H429.77L428 279.466H430.76L432.291 290.624H432.321L433.791 279.466H437.947L439.432 290.624H439.462L440.977 279.466H443.573Z" fill="white"/>
<path d="M102.958 285.598C102.958 287.878 102.137 288.951 100.358 288.951C98.5789 288.951 97.7579 287.878 97.7579 285.598V279.293H95.4316V285.866C95.4316 289.22 97.2105 291.098 100.358 291.098C103.505 291.098 105.284 289.22 105.284 285.866V279.293H102.958V285.598Z" fill="white"/>
<path d="M116.232 284.927C116.232 287.744 114.453 288.951 112.537 288.951C110.211 288.951 108.979 286.939 108.979 284.927C108.979 282.244 110.758 280.902 112.537 280.902C114.726 280.902 116.232 282.646 116.232 284.927ZM113.084 278.89C111.442 278.89 110.074 279.695 109.116 281.037V279.293H106.789V295.927H109.116V289.22C110.074 290.561 111.442 291.232 112.947 291.232C114.589 291.232 116.095 290.561 117.053 289.354C118.011 288.28 118.558 286.671 118.558 285.061C118.558 283.451 118.011 281.976 117.053 280.902C116.095 279.561 114.589 278.89 113.084 278.89Z" fill="white"/>
<path d="M83.5263 279.427C82.842 279.024 82.2947 278.89 81.6105 278.89C80.2421 278.89 79.0105 279.695 78.4631 280.902V279.159H76.1368V290.695H78.4631V285.061C78.4631 283.183 78.7368 281.171 81.0631 281.171C81.4736 281.171 81.7473 281.171 82.021 281.305L83.5263 279.427Z" fill="white"/>
<path d="M72.4421 279.159V281.037C71.4842 279.695 70.1158 278.89 68.4737 278.89C66.8316 278.89 65.4632 279.561 64.5053 280.768C63.5474 281.841 63 283.317 63 284.927C63 286.537 63.5474 288.146 64.5053 289.219C65.4632 290.427 66.9684 291.098 68.6105 291.098C70.1158 291.098 71.4842 290.293 72.4421 289.085V290.829C72.4421 292.841 72.0316 294.854 69.1579 294.854C67.1053 294.854 65.7368 293.646 65.7368 291.768V291.634H63.5474V291.768C63.5474 294.854 65.8737 297 69.1579 297C74.2211 297 74.9053 293.378 74.9053 290.159V279.293H72.4421V279.159ZM68.8842 288.951C66.5579 288.951 65.3263 286.939 65.3263 284.927C65.3263 282.244 67.1053 280.902 68.8842 280.902C71.0737 280.902 72.579 282.512 72.579 284.927C72.4421 287.744 70.6632 288.951 68.8842 288.951Z" fill="white"/>
<path d="M139.905 283.854C138.811 284.256 137.716 284.524 136.895 284.524C136.211 284.524 135.8 284.39 135.526 283.988C135.253 283.585 135.253 283.049 135.389 282.244L136.074 279.293C136.347 277.817 136.211 276.744 135.663 276.073C135.116 275.402 134.295 275.134 133.2 275.134C131.968 275.134 130.874 275.537 129.779 276.476C129.368 275.671 128.411 275.134 127.179 275.134C126.084 275.134 125.126 275.537 124.168 276.207C123.758 275.537 122.663 275 121.432 275C120.884 275 120.2 275.134 119.653 275.268H119.516L119.105 277.415L119.653 277.146C120.474 276.878 121.158 276.878 121.432 277.146C121.705 277.415 121.705 277.817 121.568 278.354L120.063 284.659H122.663L123.758 280.232C124.305 278.085 125.263 277.012 126.632 277.012C127.042 277.012 127.316 277.146 127.453 277.415C127.726 277.683 127.726 278.22 127.589 279.024L126.221 284.659H128.821L130.053 279.427C130.326 278.085 131.558 277.012 132.789 277.012C133.2 277.012 133.474 277.146 133.611 277.415C133.884 277.683 133.884 278.22 133.747 279.024L133.063 282.244C132.789 283.585 132.926 284.659 133.611 285.329C134.295 286.134 135.389 286.537 136.758 286.537C137.853 286.537 139.084 286.268 140.316 285.732L140.453 285.598L141 283.183L139.905 283.854Z" fill="white"/>
<path d="M94.0632 282.512C93.7895 281.707 93.379 281.171 92.8316 280.634C92.2843 280.098 91.7369 279.695 90.9158 279.427C90.2316 279.159 89.2737 279.024 88.3158 279.024C87.3579 279.024 86.5369 279.159 85.7158 279.427C85.0316 279.695 84.3474 280.098 83.8001 280.634C83.2527 281.171 82.8422 281.841 82.5685 282.512C82.2948 283.317 82.158 284.122 82.158 284.927C82.158 285.866 82.2948 286.671 82.5685 287.476C82.8422 288.28 83.2527 288.817 83.8001 289.354C84.3474 289.89 84.8948 290.293 85.7158 290.561C86.4001 290.829 87.3579 290.963 88.3158 290.963C89.2737 290.963 90.0948 290.829 90.9158 290.561C91.6 290.293 92.2843 289.89 92.8316 289.354C93.379 288.817 93.7895 288.146 94.0632 287.476C94.3369 286.671 94.4737 285.866 94.4737 284.927C94.4737 284.122 94.3369 283.183 94.0632 282.512ZM90.0948 288.817C89.6843 289.085 89.1369 289.219 88.4527 289.219C87.9053 289.219 87.3579 289.085 86.8106 288.817C86.4001 288.549 85.9895 288.28 85.7158 287.878C85.4422 287.476 85.1685 287.073 85.0316 286.537C84.8948 286 84.8948 285.463 84.8948 284.927C84.8948 284.39 84.8948 283.854 85.0316 283.451C85.1685 282.915 85.4422 282.512 85.7158 282.11C85.9895 281.707 86.4001 281.439 86.8106 281.171C87.2211 280.902 87.7685 280.768 88.4527 280.768C89.0001 280.768 89.5474 280.902 90.0948 281.171C90.5053 281.439 90.9158 281.707 91.1895 282.11C91.4632 282.512 91.7369 282.915 91.8737 283.451C92.0106 283.988 92.0106 284.524 92.0106 284.927C92.0106 285.463 92.0106 286 91.8737 286.537C91.7369 287.073 91.4632 287.476 91.1895 287.878C90.9158 288.28 90.5053 288.683 90.0948 288.817Z" fill="white"/>
<g clip-path="url(#clip0_1_65)">
<path d="M261.71 290.769C261.71 289.089 260.825 287.085 259.278 286.481C260.668 286.204 261.649 284.953 261.585 283.536C261.585 281.592 260.244 280.221 258.18 280.221H253.39V290.769H255.499V286.866C257.722 286.767 259.58 288.543 259.584 290.769L261.71 290.769ZM258.031 284.846H255.5V282.24H258.031C258.918 282.24 259.477 282.707 259.477 283.536C259.477 284.364 258.918 284.846 258.031 284.846ZM252.366 290.769L248.073 280.22H245.573L241.311 290.769H243.62C244.418 288.98 246.655 288.036 248.875 287.836L250.051 290.769H252.366ZM245.161 286.905L246.831 282.737L248.091 285.88C247.061 286.047 246.07 286.394 245.161 286.906L245.161 286.905ZM206.653 280.22V286.403C205.365 284.168 202.86 281.385 201.823 280.22H199.316V290.769H201.424V282.864C202.995 284.53 205.637 288.566 206.553 290.769H208.76V280.22H206.653ZM186.987 286.309C184.699 286.309 183.107 280.22 183.107 280.22H181V290.769H183.109V285.238C183.785 286.866 185.314 288.411 186.989 288.411C188.663 288.411 190.206 286.866 190.882 285.22V290.769H192.988V280.22H190.881C190.881 280.22 189.274 286.309 186.987 286.309ZM195.113 280.22H197.222V290.769H195.113V280.22ZM210.884 280.22H214.951C217.948 280.22 219.997 282.557 219.997 285.509C219.997 288.461 217.947 290.769 214.951 290.769H210.884V280.22ZM214.92 288.644C216.608 288.644 217.813 287.333 217.813 285.509C217.813 283.686 216.608 282.344 214.92 282.344H212.993V288.642L214.92 288.644ZM263.454 280.22H271V282.24H265.566V284.365H270.382V286.385H265.566V288.751H271V290.771H263.454V280.22ZM225.57 284.168C224.125 284.018 223.718 283.657 223.718 283.023C223.718 282.435 224.411 282.035 225.436 282.035C226.285 282.053 227.032 282.602 227.303 283.408L229.278 282.537C228.718 280.995 227.273 280 225.431 280C223.217 280 221.604 281.22 221.604 282.984C221.604 284.943 222.871 286.028 225.325 286.269C226.966 286.434 227.615 286.886 227.615 287.55C227.615 288.408 226.874 288.981 225.566 288.981C224.344 288.981 223.468 288.273 223.081 286.957L221.124 287.712C221.666 289.749 223.275 291 225.569 291C228.099 291 229.726 289.569 229.726 287.488C229.727 285.444 228.251 284.44 225.57 284.168ZM240.301 280.22H238.188V285.779C237.25 284.831 235.786 284.35 233.384 284.35V280.22H231.28V290.769H233.388V286.399C235.79 286.399 238.226 287.041 238.226 290.769H240.301L240.301 280.22Z" fill="white"/>
</g>
<path d="M319.596 290.845V283.207H319.568L317.606 290.845H315.517L313.498 283.207H313.47V290.845H311V280.155H315.305L316.844 285.824H316.872L318.34 280.155H322.673V290.845H319.596Z" fill="white"/>
<path d="M331.552 290.845H323.492V280.155H331.552V282.616H326.725V284.178H330.635V286.555H326.725V288.285H331.552V290.845Z" fill="white"/>
<path d="M336.097 288.384C336.535 288.384 336.817 288.412 337.226 288.201C337.523 288.032 337.763 287.793 337.932 287.497C338.313 286.879 338.426 286.161 338.426 285.444C338.426 284.726 338.229 283.798 337.763 283.193C337.24 282.56 336.746 282.588 335.998 282.588H335.617V288.384H336.097ZM336.281 280.155C337.833 280.155 339.061 280.352 340.219 281.463C341.348 282.518 341.856 283.981 341.856 285.514C341.856 286.921 341.362 288.384 340.374 289.396C339.315 290.508 337.974 290.845 336.492 290.845H332.314V280.155H336.281Z" fill="white"/>
<path d="M345.766 290.845H342.449V280.155H345.766V290.845Z" fill="white"/>
<path d="M351.949 286.4L351.074 283.306L350.199 286.4H351.949ZM352.514 288.749H349.648L348.999 290.859H346.331L349.662 280.169H353.135L356.494 290.859H353.135L352.514 288.749Z" fill="white"/>
<path d="M365.161 286.949C364.963 289.41 363.157 291 360.686 291C357.468 291 355.774 288.679 355.774 285.641C355.774 282.56 357.256 280 360.644 280C363.382 280 364.949 281.618 365.161 284.29L362.098 284.445C362.126 283.545 361.787 282.405 360.672 282.405C359.218 282.405 359.162 284.628 359.162 285.641C359.162 286.71 359.218 288.538 360.715 288.538C361.731 288.538 362.126 287.652 362.168 286.766L365.161 286.949Z" fill="white"/>
<path d="M369.071 285.542C369.071 286.569 369.184 288.552 370.68 288.552C372.176 288.552 372.289 286.569 372.289 285.542C372.289 284.501 372.134 282.405 370.68 282.405C369.226 282.419 369.071 284.501 369.071 285.542ZM375.804 285.528C375.804 288.566 373.927 291 370.68 291C367.433 291 365.556 288.566 365.556 285.528C365.556 282.335 367.419 280 370.68 280C373.955 280 375.804 282.335 375.804 285.528Z" fill="white"/>
<path d="M384.923 290.845V283.207H384.895L382.933 290.845H380.843L378.825 283.207H378.797V290.845H376.327V280.155H380.632L382.17 285.824H382.199L383.667 280.155H388V290.845H384.923Z" fill="white"/>
<defs>
<clipPath id="clip0_1_65">
<rect width="90" height="11" fill="white" transform="translate(181 280)"/>
</clipPath>
</defs>
</svg>
